<svg version="1.1" id="Layer_1" xmlns="http://www.w3.org/2000/svg" xmlns:xlink="http://www.w3.org/1999/xlink" x="0px" y="0px"
	 viewBox="0 0 87 100" style="enable-background:new 0 0 87 100;" xml:space="preserve">
<style type="text/css">
	.st0{fill:#131417;}
	<!-- .st0{fill:#ffffff;} -->
</style>
<g>
	<polygon class="st0" points="29.61,49.96 43,73.16 69.79,73.16 83.18,49.96 69.79,26.76 43,26.76 	"/>
	<polygon class="st0" points="73.43,75.09 86.82,98.29 87,98.29 87,51.89 86.82,51.89 	"/>
	<polygon class="st0" points="86.82,1.63 73.43,24.83 86.82,48.03 87,48.03 87,1.63 	"/>
	<polygon class="st0" points="26.61,51.89 0,51.89 0,98.29 26.61,98.29 40.01,75.09 	"/>
	<polygon class="st0" points="40.01,24.83 26.61,1.63 0,1.63 0,48.03 26.61,48.03 	"/>
	<polygon class="st0" points="69.79,22.89 83,0 29.78,0 43,22.89 	"/>
	<polygon class="st0" points="43.64,77.02 30.38,100 83.7,100 70.43,77.02 	"/>
</g>
</svg>
